<svg id="Layer_1" data-name="Layer 1" xmlns="http://www.w3.org/2000/svg" width="2064.01" height="1773.37" viewBox="0 0 2064.01 1773.37"><title>Artboard 1 copy</title><path d="M601.83,1516.36c-15.33,16.16-13.5,114.39-4.27,123.15s207.75,26.05,222.35,10.67,28.73-48.77,58.72-49.56,23.88,52.41,41.88,51.94,683.58,4.78,696-8.3,21.31-102.59-2.68-102S601.83,1516.36,601.83,1516.36Z"/><path d="M1469.71,1270.5c-94.46,2.48-143.07-20.25-143.07-20.25-29.93,31.55-12.83,139.88-12.83,139.88s-225.34-10.59-312.31-8.3-94.39,119.51-61.4,118.65,635,10.33,664.95,9.55,40-77.57,37.65-166S1564.17,1268,1469.71,1270.5Z"/><path d="M973.88,1358.55c99-2.6,307.34,5.43,307.34,5.43s-34-79.38,26.64-143.24c0,0-238.24-158.79-241-265.25l-5.51-209.92c-1.3-49.48-.15-120,40.73-163.12,0,0-245.55-237.37-452.15-19.64,0,0-1,24.6-2.42,63.08,11.07,21.5,33,39.84,65.59,54.77,40.86,18.71,82.75,24.43,84,24.6l28.08,3.45.75,28.42c.78,29.56-5.46,55.58-18.53,77.35-11.15,18.56-27,33.67-47.16,44.89C728,877.37,693,880.85,675,881.32c-3.34.09-5.86.06-7.31,0a110.55,110.55,0,0,1-29.5-3.48c-3.58,100.56-6.51,189.59-6.16,203.08.87,33,66.64,137.79,66.64,137.79s-63.8-29.83-64.79-67.32-28.49,5-27.91,27.33,14.53,34.54,15.24,61.53-33.18-6.63-30,116.32,36.37,128.08,36.37,128.08l264.33,9.56S874.92,1361.15,973.88,1358.55ZM986.8,902c16-.42,25.25,28.35,4.26,28.9S970.8,902.4,986.8,902Zm3,57.94c14.84-15.65,29,18.75,16.35,32.08S974.73,975.82,989.82,959.92Zm175.78,256c13.87-14.62,44.66,5.33,30.05,20.72S1148.81,1233.59,1165.6,1215.89Zm-40.87-32.44c20.49-.54,33.51,19.13,15,19.61S1112,1183.79,1124.73,1183.45Zm-51.84-31.15c10.71-11.28,25.43,6.58,13.51,19.15S1059,1166.92,1072.9,1152.3Zm-19.11-42c-15.09,15.9-33.58-2.62-18-19C1042.6,1084.08,1068.88,1094.39,1053.79,1110.29Zm-30.07-59.23c-15.82,16.67-31.55-27.18-14.23-27.64C1025,1023,1039.54,1034.39,1023.72,1051.06ZM993.19,669.23c23.49-.62,8.22,35.3-4.17,35.62C966.63,705.44,969.7,669.85,993.19,669.23Zm-14.61,90.91c20.48-.54,13,30.17-6.84,30.69S958.1,760.68,978.58,760.15Zm-10.21,68.79c16.49-.43,20,38.49,1,39S946.38,829.51,968.37,828.94Z"/><path d="M667.78,848.33S796,854,792.93,738c0,0-183.67-23.19-186.85-144.14s97.64-243.65,97.64-243.65-25.91-212.06-3.2-236C627.88,116.13,559.7,332.49,596.12,367,474,495.8,529.16,852,667.78,848.33Z"/><path d="M592.7,865.75S508,765.12,505.39,602.14s59.1-236,59.1-236-38.57-130.89,75-248.25c0,0-162.8,13.65-159.12,239.62,0,0-51.71-43.16-53.65-162.15,0,0-86.38,212.6,31.32,326.53,0,0-134.84,10.67-137.62-159.78C185.1,502,395.75,706.94,448.08,706.09c0,0-112.51,30.84-174.5-29.16,0,0,22,181.67,190.44,178.92,0,0-60.08,26.48-119.07,27.44C344.95,883.29,450.08,1013.09,592.7,865.75Z"/><path d="M808.44,450.39C771,414.86,885.71,231.29,919.05,262.92c16.67,15.82,2.92,82.7-10,96.3,0,0,88.79-85.36,108.8-66.38S991.6,454.09,958.61,455,944,392.81,944,392.81s-15.79,27.42-46.77,28.24-30.93-35.2-30.93-35.2S829.72,470.59,808.44,450.39Z"/><path d="M1007.74,454.28c.62,23.49,60.42,53.43,85.25,27.27s-40.71-36.19-21-57,33.21,11.88,45.62-1.2.89-8.28-22.45-30.42c-15.39-14.6,10-38.25,22.26-26.59,17,16.09,42.38,15.39,54.55,2.57s-28.14-71.2-55.18-59.4C1074,328.22,1007,424.79,1007.74,454.28Z"/><path d="M1293.79,705c27.58-18.89-11.08-71.25,16.92-90.43,28.26-19.35,48.59,32.24,82.14,9.27s-13.46-112.9-93.39-58.17C1203.19,631.63,1247.22,736.92,1293.79,705Z"/><path d="M1394.22,678.89c-37.64-1.67-96.65,109.31-78.51,129.14s130,2.28,132.27-48.17-51.16,8-59.51-1.15S1447.67,681.26,1394.22,678.89Z"/><path d="M1568.51,1034.82c31.55,29.93,228.67-171.77,176.76-221-35.24-33.43-49.75,67.13-69.25,67.65s-24.92-53.86-47.41-53.27c-39,1,4.39,100.67-7.53,113.24S1537.48,1005.38,1568.51,1034.82Z"/><path d="M1239.29,841.95c-33,.87-156.46,98.64-113.38,139.52,45.91,43.56,53.12-9.34,39.94-21.85s5-37.85,15.27-28.11,24.79,20.11,36.71,7.54-3.93-35.41,7.26-47.21,37.86,23.31,57.59,2.52S1256.29,841.5,1239.29,841.95Z"/><path d="M1212.37,1093.52c18,17,122.82-84.75,122.82-84.75s42.41,22.8,55.94,8.53-106.17-102.5-123-84.8,22.39,50.37,22.39,50.37S1190.31,1072.59,1212.37,1093.52Z"/><path d="M1241.44,422.44c-10.77-2.77-137.17,77.5-144.4,105.58-10.73,41.64,77.74-1.14,82.06,6.16s-30.16,63,11.48,73.69,39.57-89.46,39.57-89.46,40.09,24.78,51.19-18.31S1262.58,427.88,1241.44,422.44ZM1216.63,480c-7.07-12,20.62-30,31.3-11.93S1224.78,493.8,1216.63,480Z"/><path d="M1466.33,901.65s-6.77,81.08,35.73,80.91,23.63-90.65,23.63-90.65,93.66-22.13,17.6-97.57c-32.56-32.3-173.36,96.45-136.46,133.05S1466.33,901.65,1466.33,901.65Zm67.12-70.77c15.31,15.19-15,37.73-28.57,24.28S1518.13,815.69,1533.45,830.88Z"/><path d="M1075,783.65c-6.52,37.94,49.11,24.17,49.11,24.17s-33,53.18-17.07,75.7,68.48-82.59,68.48-82.59c24.28,34.36,106.56-13.39,66-70.85S1080.24,753.1,1075,783.65Zm111.07-22.41c-13.15-18.62,19.1-17.91,27.09-6.6S1197.44,777.35,1186.06,761.24Z"/><path d="M1464.55,1017.86c-33.34-31.64-163.67,140.06-135.67,166.62,25.75,24.43,69.06-30.32,69.06-30.32s7.14,56.33,43.13,55.39,16.83-83,16.83-83S1555.86,1104.49,1464.55,1017.86Zm-30,71.64c-5.81-5.52,1.65-32.55,15.5-19.41S1439.2,1093.89,1434.59,1089.51Z"/><path d="M1617.16,1083.87c-65.91-62.54-147.55,101-98.94,147.15C1541.7,1253.29,1683.07,1146.41,1617.16,1083.87Zm-47.87,83.29c-20.53.54-11.51-27,13.48-27.7C1601.77,1139,1589.82,1166.62,1569.29,1167.16Z"/></svg>
