<?xml version="1.0" encoding="utf-8"?>
<!-- Generator: Adobe Illustrator 25.0.1, SVG Export Plug-In . SVG Version: 6.00 Build 0)  -->
<svg version="1.1" id="Layer_1" xmlns="http://www.w3.org/2000/svg" xmlns:xlink="http://www.w3.org/1999/xlink" x="0px" y="0px"
	 viewBox="0 0 2064 1773.4" style="enable-background:new 0 0 2064 1773.4;" xml:space="preserve">
<style type="text/css">
	.st0{fill:#FFFFFF;}
</style>
<path class="st0" d="M601.8,1516.4c-15.3,16.2-13.5,114.4-4.3,123.2s207.8,26.1,222.4,10.7s28.7-48.8,58.7-49.6s23.9,52.4,41.9,51.9
	s683.6,4.8,696-8.3s21.3-102.6-2.7-102S601.8,1516.4,601.8,1516.4z"/>
<path class="st0" d="M1469.7,1270.5c-94.5,2.5-143.1-20.3-143.1-20.3c-29.9,31.6-12.8,139.9-12.8,139.9s-225.3-10.6-312.3-8.3
	s-94.4,119.5-61.4,118.7s635,10.3,665,9.6s40-77.6,37.7-166S1564.2,1268,1469.7,1270.5z"/>
<path class="st0" d="M973.9,1358.6c99-2.6,307.3,5.4,307.3,5.4s-34-79.4,26.6-143.2c0,0-238.2-158.8-241-265.3l-5.5-209.9
	c-1.3-49.5-0.2-120,40.7-163.1c0,0-245.5-237.4-452.2-19.6c0,0-1,24.6-2.4,63.1c11.1,21.5,33,39.8,65.6,54.8
	c40.9,18.7,82.8,24.4,84,24.6l28.1,3.5l0.8,28.4c0.8,29.6-5.5,55.6-18.5,77.3c-11.2,18.6-27,33.7-47.2,44.9
	c-32.2,18-67.2,21.5-85.2,21.9c-3.3,0.1-5.9,0.1-7.3,0c-9.9,0.2-19.9-1-29.5-3.5c-3.6,100.6-6.5,189.6-6.2,203.1
	c0.9,33,66.6,137.8,66.6,137.8s-63.8-29.8-64.8-67.3s-28.5,5-27.9,27.3s14.5,34.5,15.2,61.5s-33.2-6.6-30,116.3
	s36.4,128.1,36.4,128.1l264.3,9.6C891.9,1494.2,874.9,1361.2,973.9,1358.6z M986.8,902c16-0.4,25.3,28.3,4.3,28.9
	S970.8,902.4,986.8,902z M989.8,959.9c14.8-15.7,29,18.8,16.3,32.1S974.7,975.8,989.8,959.9L989.8,959.9z M1165.6,1215.9
	c13.9-14.6,44.7,5.3,30.1,20.7S1148.8,1233.6,1165.6,1215.9L1165.6,1215.9z M1124.7,1183.5c20.5-0.5,33.5,19.1,15,19.6
	S1112,1183.8,1124.7,1183.5L1124.7,1183.5z M1072.9,1152.3c10.7-11.3,25.4,6.6,13.5,19.2S1059,1166.9,1072.9,1152.3L1072.9,1152.3z
	 M1053.8,1110.3c-15.1,15.9-33.6-2.6-18-19C1042.6,1084.1,1068.9,1094.4,1053.8,1110.3L1053.8,1110.3z M1023.7,1051.1
	c-15.8,16.7-31.5-27.2-14.2-27.6C1025,1023,1039.5,1034.4,1023.7,1051.1L1023.7,1051.1z M993.2,669.2c23.5-0.6,8.2,35.3-4.2,35.6
	C966.6,705.4,969.7,669.8,993.2,669.2z M978.6,760.1c20.5-0.5,13,30.2-6.8,30.7S958.1,760.7,978.6,760.1L978.6,760.1z M968.4,828.9
	c16.5-0.4,20,38.5,1,39S946.4,829.5,968.4,828.9L968.4,828.9z"/>
<path class="st0" d="M667.8,848.3c0,0,128.2,5.7,125.1-110.3c0,0-183.7-23.2-186.9-144.1s97.6-243.6,97.6-243.6s-25.9-212.1-3.2-236
	c-72.6,1.9-140.8,218.3-104.4,252.8C474,495.8,529.2,852,667.8,848.3z"/>
<path class="st0" d="M592.7,865.8c0,0-84.7-100.6-87.3-263.6s59.1-236,59.1-236s-38.6-130.9,75-248.3c0,0-162.8,13.6-159.1,239.6
	c0,0-51.7-43.2-53.6-162.1c0,0-86.4,212.6,31.3,326.5c0,0-134.8,10.7-137.6-159.8c-135.3,139.9,75.3,344.8,127.7,344
	c0,0-112.5,30.8-174.5-29.2c0,0,22,181.7,190.4,178.9c0,0-60.1,26.5-119.1,27.4C345,883.3,450.1,1013.1,592.7,865.8z"/>
<path class="st0" d="M808.4,450.4C771,414.9,885.7,231.3,919,262.9c16.7,15.8,2.9,82.7-10,96.3c0,0,88.8-85.4,108.8-66.4
	S991.6,454.1,958.6,455S944,392.8,944,392.8s-15.8,27.4-46.8,28.2s-30.9-35.2-30.9-35.2S829.7,470.6,808.4,450.4z"/>
<path class="st0" d="M1007.7,454.3c0.6,23.5,60.4,53.4,85.3,27.3s-40.7-36.2-21-57s33.2,11.9,45.6-1.2s0.9-8.3-22.4-30.4
	c-15.4-14.6,10-38.3,22.3-26.6c17,16.1,42.4,15.4,54.6,2.6s-28.1-71.2-55.2-59.4C1074,328.2,1007,424.8,1007.7,454.3z"/>
<path class="st0" d="M1293.8,705c27.6-18.9-11.1-71.3,16.9-90.4c28.3-19.3,48.6,32.2,82.1,9.3s-13.5-112.9-93.4-58.2
	C1203.2,631.6,1247.2,736.9,1293.8,705z"/>
<path class="st0" d="M1394.2,678.9c-37.6-1.7-96.7,109.3-78.5,129.1s130,2.3,132.3-48.2s-51.2,8-59.5-1.2S1447.7,681.3,1394.2,678.9
	z"/>
<path class="st0" d="M1568.5,1034.8c31.6,29.9,228.7-171.8,176.8-221c-35.2-33.4-49.8,67.1-69.3,67.7s-24.9-53.9-47.4-53.3
	c-39,1,4.4,100.7-7.5,113.2S1537.5,1005.4,1568.5,1034.8z"/>
<path class="st0" d="M1239.3,842c-33,0.9-156.5,98.6-113.4,139.5c45.9,43.6,53.1-9.3,39.9-21.8s5-37.8,15.3-28.1s24.8,20.1,36.7,7.5
	s-3.9-35.4,7.3-47.2s37.9,23.3,57.6,2.5S1256.3,841.5,1239.3,842z"/>
<path class="st0" d="M1212.4,1093.5c18,17,122.8-84.8,122.8-84.8s42.4,22.8,55.9,8.5s-106.2-102.5-123-84.8s22.4,50.4,22.4,50.4
	S1190.3,1072.6,1212.4,1093.5z"/>
<path class="st0" d="M1241.4,422.4c-10.8-2.8-137.2,77.5-144.4,105.6c-10.7,41.6,77.7-1.1,82.1,6.2s-30.2,63,11.5,73.7
	s39.6-89.5,39.6-89.5s40.1,24.8,51.2-18.3S1262.6,427.9,1241.4,422.4z M1216.6,480c-7.1-12,20.6-30,31.3-11.9
	S1224.8,493.8,1216.6,480z"/>
<path class="st0" d="M1466.3,901.7c0,0-6.8,81.1,35.7,80.9s23.6-90.7,23.6-90.7s93.7-22.1,17.6-97.6
	c-32.6-32.3-173.4,96.5-136.5,133S1466.3,901.7,1466.3,901.7z M1533.4,830.9c15.3,15.2-15,37.7-28.6,24.3S1518.1,815.7,1533.4,830.9
	z"/>
<path class="st0" d="M1075,783.7c-6.5,37.9,49.1,24.2,49.1,24.2s-33,53.2-17.1,75.7s68.5-82.6,68.5-82.6
	c24.3,34.4,106.6-13.4,66-70.8S1080.2,753.1,1075,783.7z M1186.1,761.2c-13.2-18.6,19.1-17.9,27.1-6.6S1197.4,777.3,1186.1,761.2
	L1186.1,761.2z"/>
<path class="st0" d="M1464.6,1017.9c-33.3-31.6-163.7,140.1-135.7,166.6c25.8,24.4,69.1-30.3,69.1-30.3s7.1,56.3,43.1,55.4
	s16.8-83,16.8-83S1555.9,1104.5,1464.6,1017.9z M1434.6,1089.5c-5.8-5.5,1.7-32.6,15.5-19.4S1439.2,1093.9,1434.6,1089.5
	L1434.6,1089.5z"/>
<path class="st0" d="M1617.2,1083.9c-65.9-62.5-147.6,101-98.9,147.2C1541.7,1253.3,1683.1,1146.4,1617.2,1083.9z M1569.3,1167.2
	c-20.5,0.5-11.5-27,13.5-27.7C1601.8,1139,1589.8,1166.6,1569.3,1167.2z"/>
</svg>
